<svg width="20" height="15" viewBox="0 0 20 15" fill="none" xmlns="http://www.w3.org/2000/svg">
<rect width="15.2381" height="15" rx="2.8" fill="#7A5F5B"/>
<rect width="15.2381" height="15" rx="2.8" fill="url(#paint0_linear_1_137)" fill-opacity="0.2"/>
<path d="M7.15056 3.12006C7.31298 2.68797 7.92418 2.68797 8.08661 3.12006L9.08107 5.76555C9.13241 5.90214 9.24086 6.00948 9.37797 6.05942L12.0431 7.0302C12.4816 7.18992 12.4816 7.81008 12.0431 7.9698L9.37797 8.94058C9.24086 8.99052 9.13241 9.09786 9.08107 9.23445L8.08661 11.8799C7.92418 12.312 7.31298 12.312 7.15056 11.8799L6.1561 9.23445C6.10475 9.09786 5.99631 8.99052 5.8592 8.94058L3.19408 7.9698C2.75558 7.81008 2.75558 7.18992 3.19408 7.0302L5.8592 6.05942C5.99631 6.00948 6.10475 5.90214 6.1561 5.76555L7.15056 3.12006Z" fill="white"/>
<path d="M17.1426 6.60714C17.1426 5.02919 18.4218 3.75 19.9997 3.75V3.75V11.25V11.25C18.4218 11.25 17.1426 9.97081 17.1426 8.39286V6.60714Z" fill="#7A5F5B"/>
<defs>
<linearGradient id="paint0_linear_1_137" x1="1" y1="4" x2="19.5" y2="9.5" gradientUnits="userSpaceOnUse">
<stop stop-color="white" stop-opacity="0.66"/>
<stop offset="1" stop-color="white" stop-opacity="0.16"/>
</linearGradient>
</defs>
</svg>
