<svg width="25" height="25" viewBox="0 0 25 25" fill="none" xmlns="http://www.w3.org/2000/svg">
<g opacity="0.7" filter="url(#filter0_b_1_49)">
<rect width="25" height="25" rx="5" fill="url(#paint0_linear_1_49)"/>
</g>
<rect x="6.25" y="8.125" width="9.52381" height="9.375" rx="2.8" fill="#7A5F5B"/>
<rect x="6.25" y="8.125" width="9.52381" height="9.375" rx="2.8" fill="url(#paint1_linear_1_49)" fill-opacity="0.2"/>
<path d="M10.5438 10.5419C10.7063 10.1098 11.3175 10.1098 11.4799 10.5419L11.8956 11.6478C11.9469 11.7844 12.0554 11.8917 12.1925 11.9416L13.2935 12.3427C13.732 12.5024 13.732 13.1226 13.2935 13.2823L12.1925 13.6834C12.0554 13.7333 11.9469 13.8406 11.8956 13.9772L11.4799 15.0831C11.3175 15.5152 10.7063 15.5152 10.5438 15.0831L10.1281 13.9772C10.0768 13.8406 9.96835 13.7333 9.83124 13.6834L8.73021 13.2823C8.29171 13.1226 8.29171 12.5024 8.73021 12.3427L9.83124 11.9416C9.96835 11.8917 10.0768 11.7844 10.1281 11.6478L10.5438 10.5419Z" fill="#F0E0DC"/>
<path d="M16.9639 12.2545C16.9639 11.2682 17.7634 10.4688 18.7496 10.4688V15.1562C17.7634 15.1562 16.9639 14.3568 16.9639 13.3705V12.2545Z" fill="#7A5F5B"/>
<defs>
<filter id="filter0_b_1_49" x="-38" y="-38" width="101" height="101" filterUnits="userSpaceOnUse" color-interpolation-filters="sRGB">
<feFlood flood-opacity="0" result="BackgroundImageFix"/>
<feGaussianBlur in="BackgroundImageFix" stdDeviation="19"/>
<feComposite in2="SourceAlpha" operator="in" result="effect1_backgroundBlur_1_49"/>
<feBlend mode="normal" in="SourceGraphic" in2="effect1_backgroundBlur_1_49" result="shape"/>
</filter>
<linearGradient id="paint0_linear_1_49" x1="0" y1="0" x2="28.6556" y2="5.32395" gradientUnits="userSpaceOnUse">
<stop stop-color="white" stop-opacity="0.6"/>
<stop offset="1" stop-color="white" stop-opacity="0.7"/>
</linearGradient>
<linearGradient id="paint1_linear_1_49" x1="6.875" y1="10.625" x2="18.4375" y2="14.0625" gradientUnits="userSpaceOnUse">
<stop stop-color="white" stop-opacity="0.66"/>
<stop offset="1" stop-color="white" stop-opacity="0.16"/>
</linearGradient>
</defs>
</svg>
