<svg width="14" height="16" viewBox="0 0 14 16" fill="none" xmlns="http://www.w3.org/2000/svg">
<path d="M12.6382 6.62H11.3593V2.40727C11.3593 1.07763 10.2817 0 8.95204 0H4.28795C2.95831 0 1.88068 1.07763 1.88068 2.40727V6.62H0.601818C0.268937 6.62 0 6.88894 0 7.22182V14.4436C0 14.7765 0.268937 15.0455 0.601818 15.0455H12.6382C12.9711 15.0455 13.24 14.7765 13.24 14.4436V7.22182C13.24 6.88894 12.9711 6.62 12.6382 6.62ZM7.14659 11.0772V12.074C7.14659 12.1567 7.07889 12.2244 6.99614 12.2244H6.24386C6.16111 12.2244 6.09341 12.1567 6.09341 12.074V11.0772C5.93816 10.9658 5.82229 10.8079 5.76246 10.6264C5.70264 10.4449 5.70195 10.2491 5.76049 10.0672C5.81904 9.88524 5.93379 9.72659 6.08825 9.61403C6.2427 9.50148 6.42889 9.44084 6.62 9.44084C6.81111 9.44084 6.99729 9.50148 7.15175 9.61403C7.3062 9.72659 7.42096 9.88524 7.47951 10.0672C7.53805 10.2491 7.53736 10.4449 7.47753 10.6264C7.41771 10.8079 7.30183 10.9658 7.14659 11.0772ZM10.0052 6.62H3.23477V2.40727C3.23477 1.82614 3.70682 1.35409 4.28795 1.35409H8.95204C9.53318 1.35409 10.0052 1.82614 10.0052 2.40727V6.62Z" fill="#C9C9C9"/>
</svg>
